<svg xmlns="http://www.w3.org/2000/svg" viewBox="0 0 24 24">
  <path d="M8.8 7.2a3.4 3.4 0 0 1 4.8 0l.8.8a1.4 1.4 0 0 0 2-2l-.8-.8a6.2 6.2 0 0 0-8.8 8.8l.8.8a1.4 1.4 0 0 0 2-2l-.8-.8a3.4 3.4 0 0 1 0-4.8Z"/>
  <path d="M16.4 9.2a1.4 1.4 0 0 0-2 2l.8.8a3.4 3.4 0 1 1-4.8 4.8l-.8-.8a1.4 1.4 0 1 0-2 2l.8.8a6.2 6.2 0 0 0 8.8-8.8l-.8-.8Z"/>
  <path d="M8.9 3.8H4.8a1 1 0 0 0-1 1v4.1a1 1 0 0 0 1.7.7l1-1a9 9 0 0 1 4.9 4.9l-1 1a1 1 0 0 0 .7 1.7h4.1a1 1 0 0 0 1-1v-4.1a1 1 0 0 0-1.7-.7l-.8.8a11.8 11.8 0 0 0-6.9-6.9l.8-.8a1 1 0 0 0-.7-1.7Z"/>
</svg>
